<svg width="641" height="97" viewBox="0 0 641 97" fill="none" xmlns="http://www.w3.org/2000/svg">
<path d="M169.351 34.1318C172.346 28.5224 176.482 24.2441 181.758 21.2017C187.083 18.1593 193.12 16.6381 199.965 16.6381C208.617 16.6381 215.795 18.6822 221.499 22.8179C227.156 26.9537 231.007 32.8007 233.003 40.4067H217.031C215.747 36.8414 213.656 34.0842 210.804 32.0877C207.951 30.0911 204.339 29.0928 200.013 29.0928C193.928 29.0928 189.127 31.232 185.514 35.5103C181.901 39.7887 180.142 45.7784 180.142 53.5269C180.142 61.2279 181.949 67.2651 185.514 71.591C189.127 75.9169 193.928 78.1036 200.013 78.1036C208.569 78.1036 214.274 74.3481 217.031 66.7897H233.003C230.912 74.0629 227.014 79.8624 221.309 84.1408C215.605 88.4191 208.474 90.5583 200.013 90.5583C193.167 90.5583 187.083 89.0371 181.806 85.9472C176.529 82.8573 172.394 78.5314 169.399 72.9696C166.356 67.4077 164.883 60.8951 164.883 53.5744C164.883 46.2062 166.356 39.6936 169.351 34.1318Z" fill="white"/>
<path d="M257.059 85.9946C251.592 82.9047 247.314 78.5788 244.176 73.017C241.039 67.4076 239.518 60.9426 239.518 53.5743C239.518 46.3011 241.134 39.8361 244.319 34.2267C247.504 28.6174 251.877 24.2439 257.439 21.2491C263.001 18.2067 269.181 16.6855 276.026 16.6855C282.871 16.6855 289.051 18.2067 294.613 21.2491C300.175 24.2915 304.548 28.6174 307.733 34.2267C310.918 39.8836 312.535 46.3011 312.535 53.5743C312.535 60.8475 310.871 67.3125 307.591 72.9219C304.311 78.5788 299.795 82.9047 294.138 85.9946C288.481 89.0845 282.206 90.6057 275.361 90.6057C268.61 90.6057 262.478 89.037 257.059 85.9946ZM286.104 75.0136C289.432 73.2071 292.141 70.45 294.233 66.8372C296.324 63.1768 297.37 58.7559 297.37 53.5743C297.37 48.3928 296.372 43.9718 294.375 40.359C292.379 36.7462 289.717 34.0366 286.437 32.2302C283.157 30.4238 279.591 29.5206 275.788 29.5206C271.985 29.5206 268.468 30.4238 265.188 32.2302C261.908 34.0366 259.341 36.7462 257.439 40.359C255.538 43.9718 254.587 48.3452 254.587 53.5743C254.587 61.2753 256.536 67.265 260.481 71.4483C264.427 75.6315 269.371 77.7707 275.361 77.7707C279.164 77.7232 282.776 76.82 286.104 75.0136Z" fill="white"/>
<path d="M373.225 20.1559C377.694 22.4852 381.164 25.9554 383.683 30.5665C386.203 35.1776 387.439 40.6919 387.439 47.2045V89.4649H372.75V49.4387C372.75 43.0212 371.133 38.1249 367.948 34.7022C364.763 31.2795 360.343 29.5682 354.828 29.5682C349.266 29.5682 344.893 31.2795 341.613 34.7022C338.38 38.1249 336.717 43.0212 336.717 49.4387V89.4649H321.885V17.8265H336.717V26.0029C339.141 23.0556 342.231 20.7738 345.986 19.1101C349.742 17.4463 353.782 16.6381 358.013 16.6381C363.718 16.6381 368.757 17.8266 373.225 20.1559Z" fill="white"/>
<path d="M419.752 29.9008V69.5467C419.752 72.2564 420.37 74.1578 421.653 75.3463C422.889 76.5347 425.076 77.1051 428.071 77.1051H437.15V89.4648H425.456C418.801 89.4648 413.667 87.8961 410.102 84.8061C406.536 81.6687 404.778 76.6298 404.778 69.5943V29.9008H396.316V17.8264H404.778V0H419.704V17.8264H437.103V29.9008H419.752Z" fill="white"/>
<path d="M460.621 85.9946C455.155 82.9047 450.876 78.5788 447.739 73.017C444.602 67.4076 443.08 60.9426 443.08 53.5743C443.08 46.3012 444.697 39.8361 447.882 34.2267C451.067 28.6174 455.44 24.2439 461.002 21.2491C466.564 18.2067 472.743 16.6855 479.589 16.6855C486.434 16.6855 492.614 18.2067 498.176 21.2491C503.738 24.2439 508.111 28.5698 511.344 34.1792C514.529 39.8361 516.145 46.2536 516.145 53.5268C516.145 60.8 514.481 67.265 511.201 72.8744C507.921 78.5313 503.405 82.8572 497.748 85.9471C492.091 89.037 485.816 90.5582 478.971 90.5582C472.221 90.6057 466.088 89.037 460.621 85.9946ZM489.714 75.0136C493.042 73.2071 495.751 70.45 497.843 66.8372C499.935 63.1768 500.98 58.7559 500.98 53.5743C500.98 48.3928 499.982 43.9718 497.986 40.359C495.989 36.7462 493.327 34.0366 490.047 32.2302C486.767 30.4238 483.202 29.5206 479.399 29.5206C475.596 29.5206 472.078 30.4238 468.798 32.2302C465.518 34.0366 462.951 36.7462 461.049 40.359C459.148 43.9718 458.197 48.3452 458.197 53.5743C458.197 61.2753 460.146 67.265 464.092 71.4483C468.037 75.6315 472.981 77.7707 478.971 77.7707C482.774 77.7232 486.339 76.82 489.714 75.0136Z" fill="white"/>
<path d="M591.382 17.8262V89.4646H576.551V81.003C574.221 83.9503 571.179 86.2796 567.376 87.9434C563.621 89.6548 559.58 90.4629 555.349 90.4629C549.692 90.4629 544.653 89.2745 540.185 86.9451C535.716 84.6158 532.199 81.1456 529.679 76.5345C527.112 71.9234 525.829 66.4091 525.829 59.8965V17.8262H540.518V57.7098C540.518 64.1273 542.134 69.0237 545.319 72.4463C548.504 75.869 552.877 77.5803 558.439 77.5803C564.001 77.5803 568.374 75.869 571.654 72.4463C574.887 69.0237 576.551 64.1273 576.551 57.7098V17.8262H591.382Z" fill="white"/>
<path d="M627.724 19.6805C631.337 17.6364 635.567 16.6381 640.511 16.6381V31.9926H636.756C630.956 31.9926 626.535 33.4662 623.541 36.4135C620.546 39.3608 619.072 44.4949 619.072 51.768V89.4649H604.24V17.8265H619.072V28.2372C621.259 24.5768 624.159 21.7246 627.724 19.6805Z" fill="white"/>
<path d="M3.9592e-06 51.58L38.86 51.58L77.72 96.8679L3.9592e-06 51.58Z" fill="white"/>
<path d="M0 51.5802L38.86 51.5802L77.72 6.00007L0 51.5802Z" fill="white"/>
<path d="M129.433 51.58L106.643 51.58L83.853 96.868L129.433 51.58Z" fill="white"/>
<path d="M129.433 51.5802L106.643 51.5802L83.853 6.00006L129.433 51.5802Z" fill="white"/>
</svg>
