<svg width="641" height="97" viewBox="0 0 641 97" fill="none" xmlns="http://www.w3.org/2000/svg">
<path d="M169.351 34.1318C172.346 28.5224 176.481 24.2441 181.758 21.2017C187.082 18.1593 193.119 16.6381 199.965 16.6381C208.616 16.6381 215.795 18.6822 221.499 22.8179C227.156 26.9537 231.006 32.8007 233.003 40.4067H217.031C215.747 36.8414 213.655 34.0842 210.803 32.0877C207.951 30.0911 204.338 29.0928 200.012 29.0928C193.927 29.0928 189.126 31.232 185.513 35.5103C181.901 39.7887 180.142 45.7784 180.142 53.5269C180.142 61.2279 181.948 67.2651 185.513 71.591C189.126 75.9169 193.927 78.1036 200.012 78.1036C208.569 78.1036 214.273 74.3481 217.031 66.7897H233.003C230.911 74.0629 227.013 79.8624 221.309 84.1408C215.604 88.4191 208.474 90.5583 200.012 90.5583C193.167 90.5583 187.082 89.0371 181.806 85.9472C176.529 82.8573 172.393 78.5314 169.398 72.9696C166.356 67.4077 164.882 60.8951 164.882 53.5744C164.882 46.2062 166.356 39.6936 169.351 34.1318Z" fill="#2D2D2D"/>
<path d="M257.058 85.9946C251.592 82.9047 247.313 78.5788 244.176 73.017C241.038 67.4076 239.517 60.9426 239.517 53.5743C239.517 46.3011 241.133 39.8361 244.318 34.2267C247.503 28.6174 251.877 24.2439 257.439 21.2491C263 18.2067 269.18 16.6855 276.026 16.6855C282.871 16.6855 289.051 18.2067 294.613 21.2491C300.174 24.2915 304.548 28.6174 307.733 34.2267C310.918 39.8836 312.534 46.3011 312.534 53.5743C312.534 60.8475 310.87 67.3125 307.59 72.9219C304.31 78.5788 299.794 82.9047 294.137 85.9946C288.48 89.0845 282.205 90.6057 275.36 90.6057C268.61 90.6057 262.477 89.037 257.058 85.9946ZM286.103 75.0136C289.431 73.2071 292.141 70.45 294.232 66.8372C296.324 63.1768 297.37 58.7559 297.37 53.5743C297.37 48.3928 296.371 43.9718 294.375 40.359C292.378 36.7462 289.716 34.0366 286.436 32.2302C283.156 30.4238 279.591 29.5206 275.788 29.5206C271.985 29.5206 268.467 30.4238 265.187 32.2302C261.907 34.0366 259.34 36.7462 257.439 40.359C255.537 43.9718 254.586 48.3452 254.586 53.5743C254.586 61.2753 256.535 67.265 260.481 71.4483C264.427 75.6315 269.37 77.7707 275.36 77.7707C279.163 77.7232 282.776 76.82 286.103 75.0136Z" fill="#2D2D2D"/>
<path d="M373.224 20.1559C377.693 22.4852 381.163 25.9554 383.682 30.5665C386.202 35.1776 387.438 40.6919 387.438 47.2045V89.4649H372.749V49.4387C372.749 43.0212 371.133 38.1249 367.948 34.7022C364.763 31.2795 360.342 29.5682 354.827 29.5682C349.266 29.5682 344.892 31.2795 341.612 34.7022C338.38 38.1249 336.716 43.0212 336.716 49.4387V89.4649H321.884V17.8265H336.716V26.0029C339.14 23.0556 342.23 20.7738 345.986 19.1101C349.741 17.4463 353.782 16.6381 358.012 16.6381C363.717 16.6381 368.756 17.8266 373.224 20.1559Z" fill="#2D2D2D"/>
<path d="M419.751 29.9008V69.5467C419.751 72.2564 420.369 74.1578 421.653 75.3463C422.889 76.5347 425.075 77.1051 428.07 77.1051H437.15V89.4648H425.456C418.8 89.4648 413.666 87.8961 410.101 84.8061C406.536 81.6687 404.777 76.6298 404.777 69.5943V29.9008H396.315V17.8264H404.777V0H419.704V17.8264H437.102V29.9008H419.751Z" fill="#2D2D2D"/>
<path d="M460.621 85.9946C455.154 82.9047 450.876 78.5788 447.738 73.017C444.601 67.4076 443.08 60.9426 443.08 53.5743C443.08 46.3012 444.696 39.8361 447.881 34.2267C451.066 28.6174 455.439 24.2439 461.001 21.2491C466.563 18.2067 472.743 16.6855 479.588 16.6855C486.433 16.6855 492.613 18.2067 498.175 21.2491C503.737 24.2439 508.11 28.5698 511.343 34.1792C514.528 39.8361 516.144 46.2536 516.144 53.5268C516.144 60.8 514.48 67.265 511.2 72.8744C507.92 78.5313 503.404 82.8572 497.747 85.9471C492.09 89.037 485.815 90.5582 478.97 90.5582C472.22 90.6057 466.088 89.037 460.621 85.9946ZM489.713 75.0136C493.041 73.2071 495.751 70.45 497.842 66.8372C499.934 63.1768 500.98 58.7559 500.98 53.5743C500.98 48.3928 499.981 43.9718 497.985 40.359C495.988 36.7462 493.326 34.0366 490.046 32.2302C486.766 30.4238 483.201 29.5206 479.398 29.5206C475.595 29.5206 472.077 30.4238 468.797 32.2302C465.517 34.0366 462.95 36.7462 461.049 40.359C459.147 43.9718 458.196 48.3452 458.196 53.5743C458.196 61.2753 460.145 67.265 464.091 71.4483C468.037 75.6315 472.98 77.7707 478.97 77.7707C482.773 77.7232 486.338 76.82 489.713 75.0136Z" fill="#2D2D2D"/>
<path d="M591.382 17.8262V89.4646H576.55V81.003C574.221 83.9503 571.178 86.2796 567.376 87.9434C563.62 89.6548 559.579 90.4629 555.349 90.4629C549.692 90.4629 544.653 89.2745 540.184 86.9451C535.716 84.6158 532.198 81.1456 529.679 76.5345C527.112 71.9234 525.828 66.4091 525.828 59.8965V17.8262H540.517V57.7098C540.517 64.1273 542.133 69.0237 545.318 72.4463C548.503 75.869 552.877 77.5803 558.439 77.5803C564 77.5803 568.374 75.869 571.654 72.4463C574.886 69.0237 576.55 64.1273 576.55 57.7098V17.8262H591.382Z" fill="#2D2D2D"/>
<path d="M627.724 19.6805C631.336 17.6364 635.567 16.6381 640.511 16.6381V31.9926H636.756C630.956 31.9926 626.535 33.4662 623.54 36.4135C620.545 39.3608 619.072 44.4949 619.072 51.768V89.4649H604.24V17.8265H619.072V28.2372C621.259 24.5768 624.158 21.7246 627.724 19.6805Z" fill="#2D2D2D"/>
<path d="M3.9592e-06 51.288L38.86 51.288L77.72 6.00005L3.9592e-06 51.288Z" fill="url(#paint0_linear_358_810)"/>
<path d="M0 51.2879L38.86 51.2879L77.72 96.8681L0 51.2879Z" fill="url(#paint1_linear_358_810)"/>
<path d="M129.433 51.288L106.643 51.288L83.853 6L129.433 51.288Z" fill="url(#paint2_linear_358_810)"/>
<path d="M129.433 51.2878L106.643 51.2878L83.853 96.868L129.433 51.2878Z" fill="url(#paint3_linear_358_810)"/>
<defs>
<linearGradient id="paint0_linear_358_810" x1="77.6569" y1="6.0843" x2="79.2643" y2="51.1087" gradientUnits="userSpaceOnUse">
<stop stop-color="#111111"/>
<stop offset="1" stop-color="#6D6D6D"/>
</linearGradient>
<linearGradient id="paint1_linear_358_810" x1="77.6569" y1="51.3727" x2="79.2851" y2="96.6868" gradientUnits="userSpaceOnUse">
<stop stop-color="#111111"/>
<stop offset="1" stop-color="#6D6D6D"/>
</linearGradient>
<linearGradient id="paint2_linear_358_810" x1="129.396" y1="6.08424" x2="132.13" y2="50.9996" gradientUnits="userSpaceOnUse">
<stop stop-color="#111111"/>
<stop offset="1" stop-color="#6D6D6D"/>
</linearGradient>
<linearGradient id="paint3_linear_358_810" x1="129.396" y1="51.3726" x2="132.166" y2="96.5755" gradientUnits="userSpaceOnUse">
<stop stop-color="#111111"/>
<stop offset="1" stop-color="#6D6D6D"/>
</linearGradient>
</defs>
</svg>
